<?xml version="1.0" standalone="no"?><!DOCTYPE svg PUBLIC "-//W3C//DTD SVG 1.1//EN" "http://www.w3.org/Graphics/SVG/1.1/DTD/svg11.dtd"><svg t="1697103718670" class="icon" viewBox="0 0 1024 1024" version="1.1" xmlns="http://www.w3.org/2000/svg" p-id="1776" width="32" height="32" xmlns:xlink="http://www.w3.org/1999/xlink"><path d="M949.333333 448a32 32 0 0 1 31.957334 30.122667l0.042666 1.877333v124.586667a245.333333 245.333333 0 0 1-241.28 245.333333H364.8v75.52a32 32 0 0 1-52.010667 24.96l-130.133333-104.106667a32 32 0 0 1 0-49.92l130.133333-104.106666a31.957333 31.957333 0 0 1 51.968 25.002666v68.693334h371.242667a181.333333 181.333333 0 0 0 181.333333-177.92V480a32 32 0 0 1 32-32z m-283.093333-369.408a32 32 0 0 1 43.349333-6.229333l1.621334 1.237333 130.133333 104.106667a32 32 0 0 1 1.493333 48.64l-1.536 1.28-130.090666 104.106666a32 32 0 0 1-51.925334-23.125333l-0.085333-1.877333V234.666667h-371.2A181.333333 181.333333 0 0 0 106.666667 412.586667v117.333333a32 32 0 0 1-63.957334 1.92L42.666667 529.92V416A245.333333 245.333333 0 0 1 283.946667 170.666667h375.253333V98.56a32 32 0 0 1 5.589333-18.048l1.450667-1.92z" p-id="1777"></path></svg>