<?xml version="1.0" standalone="no"?><!DOCTYPE svg PUBLIC "-//W3C//DTD SVG 1.1//EN" "http://www.w3.org/Graphics/SVG/1.1/DTD/svg11.dtd"><svg t="1697169208706" class="icon" viewBox="0 0 1024 1024" version="1.1" xmlns="http://www.w3.org/2000/svg" p-id="1617" xmlns:xlink="http://www.w3.org/1999/xlink" width="32" height="32"><path d="M885.333333 800H746.666667c-77.866667 0-183.466667-37.333333-227.2-88.533333-7.466667-8.533333-14.933333-18.133333-22.4-28.8a31.488 31.488 0 0 1 7.466666-44.8 31.488 31.488 0 0 1 44.8 7.466666c6.4 9.6 12.8 17.066667 19.2 25.6 29.866667 34.133333 117.333333 66.133333 178.133334 66.133334h138.666666c18.133333 0 32 13.866667 32 32s-13.866667 30.933333-32 30.933333zM326.4 378.666667c-6.4-9.6-12.8-17.066667-19.2-25.6-29.866667-34.133333-118.4-65.066667-179.2-65.066667H85.333333A31.445333 31.445333 0 0 1 53.333333 256c0-18.133333 13.866667-32 32-32h42.666667c77.866667 0 183.466667 37.333333 227.2 88.533333 7.466667 9.6 16 19.2 23.466667 29.866667 10.666667 13.866667 6.4 34.133333-7.466667 44.8-14.933333 9.6-35.2 6.4-44.8-8.533333z m558.933333-154.666667c18.133333 0 32 13.866667 32 32s-13.866667 32-32 32H746.666667c-50.133333 0-97.066667 23.466667-147.2 71.466667-39.466667 38.4-70.4 76.8-136.533334 171.733333-69.333333 97.066667-101.333333 138.666667-145.066666 180.266667C258.133333 769.066667 196.266667 800 128 800H85.333333a31.445333 31.445333 0 0 1-32-32c0-18.133333 13.866667-32 32-32h42.666667c50.133333 0 97.066667-23.466667 146.133333-71.466667 39.466667-38.4 70.4-76.8 136.533334-170.666666 69.333333-98.133333 101.333333-138.666667 145.066666-180.266667 60.8-58.666667 122.666667-89.6 190.933334-89.6h138.666666z m-56.533333 161.066667a33.706667 33.706667 0 0 1-20.266667 7.466666 31.445333 31.445333 0 0 1-32-32v-209.066666c0-7.466667 2.133333-13.866667 7.466667-20.266667a32.042667 32.042667 0 0 1 44.8-5.333333l130.133333 104.533333c2.133333 1.066667 3.2 3.2 5.333334 5.333333 10.666667 13.866667 8.533333 34.133333-5.333334 44.8l-130.133333 104.533334z m0 512a33.706667 33.706667 0 0 1-20.266667 7.466666 31.445333 31.445333 0 0 1-32-32v-209.066666c0-7.466667 2.133333-13.866667 7.466667-20.266667a32.042667 32.042667 0 0 1 44.8-5.333333l130.133333 104.533333c2.133333 1.066667 3.2 3.2 5.333334 5.333333 10.666667 13.866667 8.533333 34.133333-5.333334 44.8l-130.133333 104.533334z" p-id="1618"></path></svg>