<?xml version="1.0" standalone="no"?><!DOCTYPE svg PUBLIC "-//W3C//DTD SVG 1.1//EN" "http://www.w3.org/Graphics/SVG/1.1/DTD/svg11.dtd"><svg t="1697169217140" class="icon" viewBox="0 0 1024 1024" version="1.1" xmlns="http://www.w3.org/2000/svg" p-id="1763" xmlns:xlink="http://www.w3.org/1999/xlink" width="32" height="32"><path d="M971.306667 456.704a32 32 0 0 0-53.973334 23.296v128.042667a181.333333 181.333333 0 0 1-181.333333 177.92h-371.2v-68.693334a32 32 0 0 0-52.010667-25.002666l-130.133333 104.106666a32 32 0 0 0 0 49.92l130.133333 104.106667a32 32 0 0 0 51.968-24.96v-75.52H740.053333A245.333333 245.333333 0 0 0 981.333333 604.586667v-124.586667l-0.042666-1.877333a32 32 0 0 0-9.984-21.418667z m-284.586667-389.802667a32 32 0 0 0-20.48 11.690667l-1.450667 1.92a32 32 0 0 0-5.546666 18.048V170.666667H283.904A245.333333 245.333333 0 0 0 42.666667 416v113.92l0.042666 1.92A32 32 0 0 0 106.666667 529.92V412.586667A181.333333 181.333333 0 0 1 288 234.666667h371.2v72.106666l0.085333 1.834667a32 32 0 0 0 51.925334 23.125333l130.133333-104.106666 1.493333-1.28a32 32 0 0 0-1.536-48.64l-130.090666-104.106667-1.621334-1.237333a32 32 0 0 0-22.912-5.461334zM512 365.696a36.565333 36.565333 0 0 0-36.565333 36.608v219.392a36.565333 36.565333 0 1 0 73.130666 0V402.346667A36.565333 36.565333 0 0 0 512 365.653333z" p-id="1764"></path><path d="M949.333333 448v8.533333-8.533333z m21.973334 8.704l-5.888 6.229333 5.888-6.229333zM917.333333 604.629333l8.533334 0.085334v-0.085334h-8.533334z m0 3.413334l8.533334 0.213333v-0.085333l-8.533334-0.085334z m-552.533333 177.92h-8.533333v8.533333h8.533333v-8.533333z m0-68.693334h8.533333-8.533333z m-4.949333-17.066666l-7.210667 4.565333 7.253333-4.565333z m-47.061334-7.936l5.333334 6.656-5.333334-6.656z m-130.133333 104.106666l5.333333 6.613334-5.290666-6.656z m-8.832 11.093334l-7.68-3.712 7.68 3.712z m0 27.733333l-7.68 3.712 7.68-3.712z m8.874667 11.093333l5.290666-6.613333-5.290666 6.656z m130.090666 104.106667l-5.333333 6.656 5.333333-6.656z m33.834667 3.84l3.712 7.68-3.712-7.68z m18.133333-28.8h8.533334-8.533334z m0-75.52v-8.533333h-8.533333v8.533333h8.533333z m371.242667 0v8.533333h0.085333l-0.085333-8.533333z m4.053333 0l0.085334 8.533333h0.042666l-0.128-8.533333zM981.333333 480h8.533334v-0.256l-8.533334 0.256z m-0.042666-1.877333l8.533333-0.256v-0.256l-8.533333 0.512z m-315.050667-399.530667l-6.656-5.333333-0.213333 0.256 6.869333 5.077333z m20.48-11.690667l1.194667 8.448-1.237334-8.448z m-21.930667 13.653334l-6.826666-5.12-0.213334 0.298666 7.04 4.778667z m-5.546666 18.005333h-8.533334 8.533334z m0 72.106667v8.533333h8.533333V170.666667h-8.533333zM288 170.666667v-8.533334h-0.085333l0.085333 8.533334z m-4.053333 0l-0.085334-8.533334h-0.042666l0.128 8.533334zM42.666667 529.92H34.133333v0.256l8.533334-0.213333z m0.042666 1.92l-8.533333 0.213333v0.256l8.533333-0.469333z m10.325334 21.76l5.76-6.314667-5.76 6.272z m22.570666 8.362667l0.256 8.533333-0.256-8.533333z m22.016-9.685334l-6.101333-5.973333 6.101333 5.973333z m9.045334-22.314666h-8.533334 8.533334z m0-113.962667l-8.533334-0.085333v0.085333h8.533334z m0-3.413333l-8.533334-0.170667v0.042667l8.533334 0.085333zM659.2 234.666667h8.533333v-8.533334h-8.533333v8.533334z m0 72.106666h-8.533333v0.213334l8.533333-0.256z m0.085333 1.834667l-8.533333 0.256v0.256l8.533333-0.512z m5.632 16.341333l6.997334-4.864-6.997334 4.864z m13.312 11.050667l-3.498666 7.765333 3.498666-7.765333z m17.066667 2.474667l1.109333 8.490666-1.109333-8.490666z m15.914667-6.741334l-5.333334-6.656 5.333334 6.656z m130.133333-104.106666l5.290667 6.698666 0.256-0.213333-5.546667-6.442667z m1.493333-1.28l5.589334 6.442666 0.170666-0.128-5.717333-6.314666z m-1.536-48.64l5.333334-6.698667-5.333334 6.656z m-130.090666-104.106667l5.333333-6.698667-0.213333-0.128-5.12 6.826667z m-1.621334-1.237333l5.12-6.826667-0.213333-0.170667-4.906667 6.997334zM949.333333 456.533333a23.466667 23.466667 0 0 1 16.085334 6.4l11.733333-12.416a40.533333 40.533333 0 0 0-27.818667-11.050666v17.066666z m-16.597333 6.869334a23.466667 23.466667 0 0 1 16.597333-6.869334v-17.066666a40.533333 40.533333 0 0 0-28.672 11.861333l12.074667 12.074667z m-6.869333 16.597333a23.466667 23.466667 0 0 1 6.869333-16.597333l-12.074667-12.074667a40.533333 40.533333 0 0 0-11.861333 28.672h17.066667z m0 124.629333V480h-17.066667v124.629333h17.066667z m0 3.541334v-3.456l-17.066667-0.170667v3.413333l17.066667 0.213334z m-189.866667 186.325333a189.866667 189.866667 0 0 0 189.866667-186.24l-17.066667-0.341333a172.8 172.8 0 0 1-172.8 169.514666v17.066667z m-371.2 0h371.2v-17.066667h-371.2v17.066667z m-8.533333-77.226667v68.693334h17.066666v-68.693334h-17.066666z m-3.626667-12.501333a23.466667 23.466667 0 0 1 3.626667 12.501333h17.066666a40.533333 40.533333 0 0 0-6.229333-21.589333l-14.464 9.088z m-9.685333-8.661333a23.466667 23.466667 0 0 1 9.685333 8.661333l14.464-9.088a40.533333 40.533333 0 0 0-16.768-14.933333l-7.381333 15.36z m-12.8-2.133334a23.466667 23.466667 0 0 1 12.8 2.133334l7.381333-15.36a40.533333 40.533333 0 0 0-22.144-3.754667l1.92 16.938667z m-12.032 4.949334a23.466667 23.466667 0 0 1 11.989333-4.992l-1.92-16.938667a40.533333 40.533333 0 0 0-20.736 8.618667l10.666667 13.312z m-130.133334 104.106666l130.133334-104.106666-10.666667-13.312-130.133333 104.064 10.666666 13.312z m-6.485333 8.106667a23.466667 23.466667 0 0 1 6.485333-8.106667l-10.666666-13.354666a40.533333 40.533333 0 0 0-11.178667 14.08l15.36 7.424z m-2.304 10.197333a23.466667 23.466667 0 0 1 2.304-10.154666l-15.36-7.424a40.533333 40.533333 0 0 0-4.010667 17.578666h17.066667z m2.304 10.154667a23.466667 23.466667 0 0 1-2.304-10.154667h-17.066667a40.533333 40.533333 0 0 0 4.010667 17.578667l15.36-7.424z m6.485333 8.192a23.466667 23.466667 0 0 1-6.485333-8.192l-15.36 7.424a40.533333 40.533333 0 0 0 11.221333 14.08l10.666667-13.354667z m130.133334 104.106667l-130.133334-104.106667-10.666666 13.312 130.133333 104.106667 10.666667-13.354667z m11.989333 4.949333a23.466667 23.466667 0 0 1-11.989333-4.992l-10.666667 13.354667a40.533333 40.533333 0 0 0 20.736 8.576l1.92-16.938667z m12.8-2.176a23.466667 23.466667 0 0 1-12.8 2.133333l-1.92 16.981334a40.533333 40.533333 0 0 0 22.144-3.712l-7.381333-15.402667z m9.728-8.661333a23.466667 23.466667 0 0 1-9.685333 8.661333l7.381333 15.36a40.533333 40.533333 0 0 0 16.725333-14.933333l-14.421333-9.088z m3.584-12.501334a23.466667 23.466667 0 0 1-3.584 12.501334l14.421333 9.088a40.533333 40.533333 0 0 0 6.229334-21.589334h-17.066667z m0-75.434666v75.434666h17.066667v-75.434666h-17.066667z m379.776-8.533334h-371.2v17.066667h371.2v-17.066667z m3.968-0.042666h-4.053333l0.170666 17.066666h4.053334l-0.170667-17.066666z m232.832-236.8a236.8 236.8 0 0 1-232.874667 236.8l0.256 17.066666a253.866667 253.866667 0 0 0 249.685334-253.866666h-17.066667z m0-124.586667v124.586667h17.066667v-124.586667h-17.066667z m-0.042667-1.621333l0.042667 1.877333 17.066667-0.512-0.042667-1.877333-17.066667 0.512z m-7.338666-15.445334a23.466667 23.466667 0 0 1 7.338666 15.701334l17.066667-1.024a40.533333 40.533333 0 0 0-12.672-27.093334l-11.733333 12.373334z m-292.522667-379.008a23.466667 23.466667 0 0 1 15.018667-8.533333l-2.432-16.938667a40.533333 40.533333 0 0 0-25.898667 14.805334l13.312 10.666666z m-1.28 1.706667l1.493333-1.962667-13.738666-10.154666-1.408 1.92 13.653333 10.197333z m-3.84 12.970667a23.466667 23.466667 0 0 1 4.053333-13.226667l-14.08-9.642667a40.533333 40.533333 0 0 0-7.04 22.826667h17.066667z m0 72.064V98.56h-17.066667V170.666667h17.066667z m-379.776 8.533333h371.2v-17.066667h-371.2v17.066667z m-3.968 0h4.053333l-0.170666-17.066667h-4.053334l0.170667 17.066667zM51.2 416A236.8 236.8 0 0 1 284.074667 179.2l-0.256-17.066667A253.866667 253.866667 0 0 0 34.133333 416h17.066667z m0 113.92V416H34.133333v113.92h17.066667z m0.042667 1.706667l-0.042667-1.92-17.066667 0.469333 0.042667 1.877333 17.066667-0.426666z m7.552 15.658666a23.466667 23.466667 0 0 1-7.552-15.957333l-17.066667 0.981333a40.533333 40.533333 0 0 0 13.098667 27.562667l11.52-12.586667z m16.554666 6.144a23.466667 23.466667 0 0 1-16.554666-6.144l-11.52 12.586667a40.533333 40.533333 0 0 0 28.586666 10.624l-0.512-17.066667z m16.170667-7.125333a23.466667 23.466667 0 0 1-16.170667 7.125333l0.512 17.066667a40.533333 40.533333 0 0 0 27.904-12.288l-12.245333-11.904z m6.613333-16.341333a23.466667 23.466667 0 0 1-6.613333 16.341333l12.245333 11.904a40.533333 40.533333 0 0 0 11.434667-28.245333h-17.066667z m0-113.962667v113.92h17.066667V416h-17.066667z m0-3.541333v3.456l17.066667 0.170666v-3.413333l-17.066667-0.213333zM288 226.133333A189.866667 189.866667 0 0 0 98.133333 412.416l17.066667 0.298667A172.8 172.8 0 0 1 288 243.2v-17.066667z m371.2 0h-371.2v17.066667h371.2v-17.066667z m8.533333 80.64V234.666667h-17.066666v72.106666h17.066666z m0.085334 1.621334l-0.085334-1.877334-17.066666 0.426667 0.085333 1.92 17.066667-0.469333z m4.096 11.690666a23.466667 23.466667 0 0 1-4.138667-11.946666l-17.024 0.981333a40.533333 40.533333 0 0 0 7.125333 20.693333l14.08-9.728z m9.770666 8.106667a23.466667 23.466667 0 0 1-9.770666-8.106667l-14.037334 9.728a40.533333 40.533333 0 0 0 16.853334 13.952l6.954666-15.573333z m12.544 1.834667a23.466667 23.466667 0 0 1-12.544-1.834667l-6.954666 15.573333a40.533333 40.533333 0 0 0 21.674666 3.2l-2.176-16.938666z m11.648-4.949334a23.466667 23.466667 0 0 1-11.648 4.949334l2.133334 16.938666a40.533333 40.533333 0 0 0 20.181333-8.533333l-10.666667-13.354667z m130.133334-104.106666l-130.133334 104.106666 10.666667 13.312 130.133333-104.106666-10.666666-13.269334z m1.28-1.109334l-1.536 1.322667 11.136 12.928 1.536-1.28-11.136-12.970667z m5.632-8.064a23.552 23.552 0 0 1-5.802667 8.234667l11.52 12.629333a40.533333 40.533333 0 0 0 10.026667-14.208l-15.744-6.656z m1.877333-9.898666a23.466667 23.466667 0 0 1-1.877333 9.898666l15.744 6.656a40.533333 40.533333 0 0 0 3.2-17.066666l-17.066667 0.512z m-2.474667-9.728c1.493333 3.029333 2.346667 6.357333 2.474667 9.728l17.066667-0.512a40.618667 40.618667 0 0 0-4.266667-16.853334l-15.274667 7.637334z m-6.314666-7.850667c2.645333 2.133333 4.778667 4.821333 6.314666 7.850667l15.274667-7.68a40.576 40.576 0 0 0-10.965333-13.482667l-10.666667 13.312z m-130.133334-104.106667l130.133334 104.106667 10.666666-13.312-130.133333-104.106667-10.666667 13.354667z m-1.408-1.024l1.621334 1.237334 10.24-13.653334-1.621334-1.237333-10.24 13.653333z m-16.554666-3.84a23.466667 23.466667 0 0 1 16.768 4.010667l9.813333-13.994667a40.533333 40.533333 0 0 0-29.013333-6.912l2.432 16.896z m-203.946667 326.954667c0-15.488 12.544-28.074667 28.032-28.074667v-17.066666c-24.917333 0-45.098667 20.224-45.098667 45.141333h17.066667z m0 219.392V402.346667h-17.066667v219.392h17.066667z m28.032 28.074667a28.032 28.032 0 0 1-28.032-28.074667h-17.066667c0 24.917333 20.181333 45.141333 45.098667 45.141333v-17.066666z m28.032-28.074667a28.032 28.032 0 0 1-28.032 28.074667v17.066666c24.917333 0 45.098667-20.224 45.098667-45.141333h-17.066667z m0-219.392v219.392h17.066667V402.346667h-17.066667zM512 374.186667c15.488 0 28.032 12.586667 28.032 28.074666h17.066667c0-24.917333-20.181333-45.141333-45.098667-45.141333v17.066667z" p-id="1765"></path></svg>